ModelForces
version=1
nRows=4
nColumns=155
inDegrees=no

This file contains the forces exerted on a model during a simulation.

A force is a generalized force, meaning that it can be either a force (N) or a torque (Nm).

Units are S.I. units (second, meters, Newtons, ...)
Angles are in degrees.

endheader
time	glut_med1_r	glut_med2_r	glut_med3_r	glut_min1_r	glut_min2_r	glut_min3_r	semimem_r	semiten_r	bifemlh_r	bifemsh_r	sar_r	add_long_r	add_brev_r	add_mag1_r	add_mag2_r	add_mag3_r	tfl_r	pect_r	grac_r	glut_max1_r	glut_max2_r	glut_max3_r	iliacus_r	psoas_r	quad_fem_r	gem_r	peri_r	rect_fem_r	vas_med_r	vas_int_r	vas_lat_r	med_gas_r	lat_gas_r	soleus_r	tib_post_r	flex_dig_r	flex_hal_r	tib_ant_r	per_brev_r	per_long_r	per_tert_r	ext_dig_r	ext_hal_r	glut_med1_l	glut_med2_l	glut_med3_l	glut_min1_l	glut_min2_l	glut_min3_l	semimem_l	semiten_l	bifemlh_l	bifemsh_l	sar_l	add_long_l	add_brev_l	add_mag1_l	add_mag2_l	add_mag3_l	tfl_l	pect_l	grac_l	glut_max1_l	glut_max2_l	glut_max3_l	iliacus_l	psoas_l	quad_fem_l	gem_l	peri_l	rect_fem_l	vas_med_l	vas_int_l	vas_lat_l	med_gas_l	lat_gas_l	soleus_l	tib_post_l	flex_dig_l	flex_hal_l	tib_ant_l	per_brev_l	per_long_l	per_tert_l	ext_dig_l	ext_hal_l	ercspn_r	ercspn_l	intobl_r	intobl_l	extobl_r	extobl_l	femur_lat_meniscii_r.femur_lat_r.force.X	femur_lat_meniscii_r.femur_lat_r.force.Y	femur_lat_meniscii_r.femur_lat_r.force.Z	femur_lat_meniscii_r.femur_lat_r.torque.X	femur_lat_meniscii_r.femur_lat_r.torque.Y	femur_lat_meniscii_r.femur_lat_r.torque.Z	femur_lat_meniscii_r.meniscus_lat_r.force.X	femur_lat_meniscii_r.meniscus_lat_r.force.Y	femur_lat_meniscii_r.meniscus_lat_r.force.Z	femur_lat_meniscii_r.meniscus_lat_r.torque.X	femur_lat_meniscii_r.meniscus_lat_r.torque.Y	femur_lat_meniscii_r.meniscus_lat_r.torque.Z	femur_med_meniscii_r.femur_med_r.force.X	femur_med_meniscii_r.femur_med_r.force.Y	femur_med_meniscii_r.femur_med_r.force.Z	femur_med_meniscii_r.femur_med_r.torque.X	femur_med_meniscii_r.femur_med_r.torque.Y	femur_med_meniscii_r.femur_med_r.torque.Z	femur_med_meniscii_r.meniscus_med_r.force.X	femur_med_meniscii_r.meniscus_med_r.force.Y	femur_med_meniscii_r.meniscus_med_r.force.Z	femur_med_meniscii_r.meniscus_med_r.torque.X	femur_med_meniscii_r.meniscus_med_r.torque.Y	femur_med_meniscii_r.meniscus_med_r.torque.Z	femur_med_tibia_r.tibia_upper_r.force.X	femur_med_tibia_r.tibia_upper_r.force.Y	femur_med_tibia_r.tibia_upper_r.force.Z	femur_med_tibia_r.tibia_upper_r.torque.X	femur_med_tibia_r.tibia_upper_r.torque.Y	femur_med_tibia_r.tibia_upper_r.torque.Z	femur_med_tibia_r.femur_med_r.force.X	femur_med_tibia_r.femur_med_r.force.Y	femur_med_tibia_r.femur_med_r.force.Z	femur_med_tibia_r.femur_med_r.torque.X	femur_med_tibia_r.femur_med_r.torque.Y	femur_med_tibia_r.femur_med_r.torque.Z	femur_lat_tibia_r.tibia_upper_r.force.X	femur_lat_tibia_r.tibia_upper_r.force.Y	femur_lat_tibia_r.tibia_upper_r.force.Z	femur_lat_tibia_r.tibia_upper_r.torque.X	femur_lat_tibia_r.tibia_upper_r.torque.Y	femur_lat_tibia_r.tibia_upper_r.torque.Z	femur_lat_tibia_r.femur_lat_r.force.X	femur_lat_tibia_r.femur_lat_r.force.Y	femur_lat_tibia_r.femur_lat_r.force.Z	femur_lat_tibia_r.femur_lat_r.torque.X	femur_lat_tibia_r.femur_lat_r.torque.Y	femur_lat_tibia_r.femur_lat_r.torque.Z	aACL_R	pACL_R	aPCL_R	pPCL_R	aMCL_R	mMCL_R	pMCL_R	aLCL_R	mLCL_R	pLCL_R	aPCL_L	pPCL_L	aMCL_L	aLCL_L
      0.10662616	      7.14381705	     11.45453308	     12.35215162	      5.22499365	      5.98634280	      6.63398607	    113.83389552	    166.61529267	    249.20150021	    381.70483758	    124.87660542	     11.44228056	      8.08698376	      0.00000000	      4.87790460	      8.60597499	      5.00264762	      0.00000000	     98.92841516	      7.40454130	     11.27940985	      8.51354651	     33.32664810	     25.11752835	      7.09098634	      4.60925468	      3.81828385	     39.01523388	      0.00000000	      0.00000000	      0.00000000	     21.26244462	      0.00000000	      0.00000000	      1.42075903	      3.35426352	      0.61293286	     30.77873273	      1.70851047	      2.96888780	      8.54926539	     17.31235013	      5.45859054	      7.14381705	     11.45453308	     12.35215162	      5.22499365	      5.98634280	      6.63398607	      0.00000000	      8.64043185	     14.92569295	     14.39877844	      2.97708696	     11.44228056	      8.08698376	      0.00000000	      4.87790460	      8.60597499	      6.92009778	      0.00000000	      3.08933932	      7.40454130	     11.27940985	      8.51354651	     33.32664810	     25.11752835	      7.09098634	      4.60925468	      3.81828385	     23.72431146	      0.00000000	      0.00000000	      0.00000000	     15.68959643	      8.21789627	     58.00529836	     57.91428291	      8.05405863	      7.45779977	     16.86726368	      9.53759882	     21.87169412	      3.87649573	     11.40888654	      3.86047097	     49.21373418	     49.21373418	     18.70354107	     18.70354107	     35.61955057	     35.61955057	      8.36497833	    158.51076350	     24.75383649	    -13.99170164	      0.25288585	      2.94419512	     -8.36497833	   -158.51076350	    -24.75383649	      4.86903421	     -0.53446598	      1.94168986	    -13.96767414	     22.51703480	      0.60862066	      0.28901091	      0.33416410	     -5.72873159	     13.96767414	    -22.51703480	     -0.60862066	     -0.47241749	     -0.30996051	      0.62414569	    -54.33152993	   -490.27947280	    125.17163583	    -11.95523393	      1.88959097	      2.21177484	     54.33152993	    490.27947280	   -125.17163583	     60.92244146	     -0.67795178	     23.78856541	    -59.99190333	   -326.14250291	    -80.15364569	     11.04047122	     -2.38520028	      1.43460382	     59.99190333	    326.14250291	     80.15364569	    -40.99087831	      1.40116938	     24.98610616	     24.27143182	     -6.64721362	      0.00000000	      0.00000000	      0.00000000	      0.00000000	    -31.17609153	      0.00000000	      0.00000000	      0.00000000	      0.00000000	      0.00000000	      0.00000001	      0.00000000
      0.10743135	      7.98674671	     11.39254840	     12.28578284	      5.19761063	      5.95614534	      6.60553833	    113.12978060	    165.89176261	    247.15142868	    379.81712269	    124.84180460	     11.37940451	      8.04498069	      0.00000000	      4.86406283	      8.55798356	      5.01211544	      0.43575565	     98.73488566	      7.36469674	     11.21766822	      8.46634779	     33.21008353	     24.98482827	      7.07477402	      4.59018285	      3.98067151	     38.84787122	      0.00000000	      0.00000000	      0.00000000	     22.72777259	      0.00000000	      0.00000000	      0.80856835	      3.04163603	      0.42013170	     30.37279381	      1.86735089	      2.98048397	      9.41102264	     17.24733063	      5.43507503	      7.98674671	     11.39254840	     12.28578284	      5.19761063	      5.95614534	      6.60553833	      0.00000000	      8.59119453	     14.92026713	     14.32168200	      2.96155462	     11.37940451	      8.04498069	      0.00000000	      4.86406283	      8.55798356	      6.89190258	      0.43575565	      3.07295459	      7.36469674	     11.21766822	      8.46634779	     33.21008353	     24.98482827	      7.07477402	      4.59018285	      3.98067151	     23.60726234	      0.00000000	      0.00000000	      0.00000000	     15.99762882	      8.33167247	     58.05845652	     57.82881566	      7.96817615	      7.36614026	     16.84591272	      9.50429727	     21.83729875	      3.85628354	     11.50314533	      3.89225553	     48.95528201	     48.95528201	     18.59875188	     18.59875188	     35.52293436	     35.52293436	      9.63731781	    159.97478153	     24.43302589	    -13.89883547	      0.29656151	      3.47294119	     -9.63731781	   -159.97478153	    -24.43302589	      4.89707163	     -0.57936995	      1.92938095	    -14.49740194	     23.25325114	      0.89065163	      0.18961930	      0.34377356	     -5.95236388	     14.49740194	    -23.25325114	     -0.89065163	     -0.48006419	     -0.32195541	      0.65507467	    -56.28665105	   -491.43107097	    124.87326414	    -11.97053132	      1.92483675	      2.19334225	     56.28665105	    491.43107097	   -124.87326414	     60.80938548	     -0.70780232	     24.61034626	    -58.76477106	   -316.85424168	    -77.91783491	     10.71156298	     -2.34005904	      1.43816927	     58.76477106	    316.85424168	     77.91783491	    -39.83678180	      1.37752326	     24.44191792	     22.94347979	     -7.83741365	      0.00000000	      0.00000000	      0.00000000	      0.00000000	    -31.03507027	      0.00000000	      0.00000000	      0.00000000	      0.00000000	      0.00000000	      0.00000001	      0.00000000
      0.10823654	      8.70659759	     11.33121183	     12.21999562	      5.17052814	      5.92628285	      6.57682465	    112.41523794	    165.22414985	    244.91060408	    377.80766507	    124.81728185	     11.31722676	      8.00343708	      0.00000000	      4.84927176	      8.51040925	      5.02106220	      2.25845855	     98.54718986	      7.32521906	     11.15660056	      8.41967100	     33.09483939	     24.85362205	      7.05550395	      4.57131147	      4.13343221	     38.68024554	      0.00000000	      0.00000000	      0.00000000	     24.31369499	      0.00000000	      0.00000000	      0.18496212	      2.72987339	      0.23909905	     30.39358426	      2.04117166	      3.01280710	      7.63401127	     17.18159169	      5.41175202	      8.70659759	     11.33121183	     12.21999562	      5.17052814	      5.92628285	      6.57682465	      0.00000000	      8.54250366	     14.91299367	     14.24543796	      2.94619247	     11.31722676	      8.00343708	      0.00000000	      4.84927176	      8.51040925	      6.86390781	      2.25845855	      3.05675039	      7.32521906	     11.15660056	      8.41967100	     33.09483939	     24.85362205	      7.05550395	      4.57131147	      4.13343221	     23.49043740	      0.00000000	      0.00000000	      0.00000000	     16.29205215	      8.44038969	     58.09973562	     57.74204704	      7.88404150	      7.27630796	     16.82229289	      9.47055308	     21.80187574	      3.83628455	     11.59078018	      3.92027980	     48.69966824	     48.69966824	     18.49512378	     18.49512378	     35.42742158	     35.42742158	      7.78766113	    160.11502810	     24.74121914	    -14.03082565	      0.24766438	      2.67468717	     -7.78766113	   -160.11502810	    -24.74121914	      4.90643667	     -0.53174502	      2.03580141	    -14.90245016	     24.00100048	      1.21643203	      0.07186140	      0.34964120	     -6.12392902	     14.90245016	    -24.00100048	     -1.21643203	     -0.48609469	     -0.33102774	      0.68192122	    -58.16871345	   -491.54148123	    123.06362049	    -11.90615864	      1.95060506	      2.16752978	     58.16871345	    491.54148123	   -123.06362049	     60.03644114	     -0.74413087	     25.40120830	    -57.48081611	   -308.31308011	    -75.74352543	     10.40363203	     -2.29556960	      1.45082512	     57.48081611	    308.31308011	     75.74352543	    -38.72496640	      1.35417413	     23.87382065	     21.49666049	     -9.10630219	      0.00000000	      0.00000000	      0.00000000	      0.00000000	    -30.85145496	      0.00000000	      0.00000000	      0.00000000	      0.00000000	      0.00000000	      0.00000001	      0.00000000
      0.10904173	      9.32581506	     11.27052058	     12.15479971	      5.14374273	      5.89675143	      6.54788414	    111.69905983	    164.61072566	    242.48592816	    375.65657038	    124.80369046	     11.25573922	      7.96234765	      0.00000000	      4.83363075	      8.46325430	      5.02934852	      3.08468213	     98.37096535	      7.28611265	     11.09620058	      8.37351046	     32.98089995	     24.72389207	      7.03368323	      4.55263933	      4.27726567	     38.51363804	      0.00000000	      0.00000000	      0.00000000	     26.01408170	      0.00000000	      0.00000000	      0.00000000	      2.42049506	      0.07108522	     30.07044776	      2.22973076	      3.06439904	      9.62871137	     17.12729165	      5.38883300	      9.32581506	     11.27052058	     12.15479971	      5.14374273	      5.89675143	      6.54788414	      0.00000000	      8.49435292	     14.90390584	     14.17003644	      2.93099854	     11.25573922	      7.96234765	      0.00000000	      4.83363075	      8.46325430	      6.83611657	      3.08468213	      3.04072463	      7.28611265	     11.09620058	      8.37351046	     32.98089995	     24.72389207	      7.03368323	      4.55263933	      4.27726567	     23.37388273	      0.00000000	      0.00000000	      0.00000000	     16.57346978	      8.54424481	     58.12963100	     57.65402640	      7.80171718	      7.18840755	     16.79648012	      9.43639460	     21.76544517	      3.81649736	     11.67128188	      3.94438094	     48.44686015	     48.44686015	     18.39264358	     18.39264358	     35.33299889	     35.33299889	      6.54451884	    160.02927229	     24.63636883	    -13.98583610	      0.21161525	      2.13170220	     -6.54451884	   -160.02927229	    -24.63636883	      4.89647677	     -0.49395743	      2.11683367	    -14.85821681	     25.08193194	      1.51253175	     -0.02696138	      0.34951994	     -6.09897606	     14.85821681	    -25.08193194	     -1.51253175	     -0.49903091	     -0.33480567	      0.68793601	    -59.67689549	   -491.10806153	    123.27590964	    -11.92423605	      1.98912300	      2.15970495	     59.67689549	    491.10806153	   -123.27590964	     60.11886127	     -0.77044027	     26.02593600	    -56.12887399	   -301.27175690	    -74.55558936	     10.17032964	     -2.26129837	      1.48307644	     56.12887399	    301.27175690	     74.55558936	    -38.06128306	      1.33057757	     23.27546571	     20.27067349	    -10.10517159	      0.00000000	      0.00000000	      0.00000000	      0.00000000	    -30.83602084	      0.00000000	      0.00000000	      0.00000000	      0.00000000	      0.00000000	      0.00000001	      0.00000000
